<?xml version="1.0" encoding="UTF-8" standalone="no"?>
<!DOCTYPE svg PUBLIC "-//W3C//DTD SVG 1.1//EN"
 "http://www.w3.org/Graphics/SVG/1.1/DTD/svg11.dtd">
<!-- Generated by graphviz version 2.50.0 (20211204.2007)
 -->
<!-- Title: graf solo Pages: 1 -->
<svg width="401pt" height="105pt"
 viewBox="0.00 0.00 401.09 105.00" xmlns="http://www.w3.org/2000/svg" xmlns:xlink="http://www.w3.org/1999/xlink">
<g id="graph0" class="graph" transform="scale(1 1) rotate(0) translate(4 101)">
<title>graf solo</title>
<polygon fill="white" stroke="transparent" points="-4,4 -4,-101 397.09,-101 397.09,4 -4,4"/>
<!-- 1 -->
<g id="node1" class="node">
<title>1</title>
<ellipse fill="none" stroke="black" cx="27" cy="-74" rx="27" ry="18"/>
<text text-anchor="middle" x="27" y="-70.3" font-family="Times New Roman,serif" font-size="14.00">a</text>
</g>
<!-- 3 -->
<g id="node2" class="node">
<title>3</title>
<ellipse fill="none" stroke="black" cx="366.09" cy="-58" rx="27" ry="18"/>
<text text-anchor="middle" x="366.09" y="-54.3" font-family="Times New Roman,serif" font-size="14.00">2</text>
</g>
<!-- 1&#45;&gt;3 -->
<g id="edge1" class="edge">
<title>1&#45;&gt;3</title>
<path fill="none" stroke="black" d="M53.55,-77.4C59.59,-78.06 66.01,-78.66 72,-79 77.77,-79.33 79.22,-79.01 85,-79 172.6,-78.78 195.13,-88.55 282.09,-78 298.47,-76.01 316.3,-71.97 331.22,-68.04"/>
<polygon fill="black" stroke="black" points="332.31,-71.37 341.03,-65.36 330.46,-64.62 332.31,-71.37"/>
<text text-anchor="middle" x="196.09" y="-85.8" font-family="Times New Roman,serif" font-size="14.00">3124</text>
</g>
<!-- 4 -->
<g id="node3" class="node">
<title>4</title>
<ellipse fill="none" stroke="black" cx="133.55" cy="-43" rx="30.59" ry="18"/>
<text text-anchor="middle" x="133.55" y="-39.3" font-family="Times New Roman,serif" font-size="14.00">asvae</text>
</g>
<!-- 1&#45;&gt;4 -->
<g id="edge2" class="edge">
<title>1&#45;&gt;4</title>
<path fill="none" stroke="black" d="M51.99,-66.89C65.01,-63.02 81.4,-58.17 95.98,-53.84"/>
<polygon fill="black" stroke="black" points="97.14,-57.15 105.73,-50.95 95.15,-50.44 97.14,-57.15"/>
<text text-anchor="middle" x="78.5" y="-63.8" font-family="Times New Roman,serif" font-size="14.00">M</text>
</g>
<!-- 2 -->
<g id="node4" class="node">
<title>2</title>
<ellipse fill="none" stroke="black" cx="255.09" cy="-18" rx="27" ry="18"/>
<text text-anchor="middle" x="255.09" y="-14.3" font-family="Times New Roman,serif" font-size="14.00">x</text>
</g>
<!-- 4&#45;&gt;2 -->
<g id="edge5" class="edge">
<title>4&#45;&gt;2</title>
<path fill="none" stroke="black" d="M162.58,-37.14C179.5,-33.6 201.21,-29.06 219.23,-25.29"/>
<polygon fill="black" stroke="black" points="220.01,-28.7 229.09,-23.23 218.58,-21.85 220.01,-28.7"/>
<text text-anchor="middle" x="196.09" y="-36.8" font-family="Times New Roman,serif" font-size="14.00">:D</text>
</g>
<!-- 2&#45;&gt;3 -->
<g id="edge4" class="edge">
<title>2&#45;&gt;3</title>
<path fill="none" stroke="black" d="M279.21,-26.48C294.67,-32.16 315.25,-39.71 332.38,-46"/>
<polygon fill="black" stroke="black" points="331.42,-49.37 342.01,-49.53 333.83,-42.8 331.42,-49.37"/>
<text text-anchor="middle" x="310.59" y="-45.8" font-family="Times New Roman,serif" font-size="14.00">cds</text>
</g>
<!-- 2&#45;&gt;2 -->
<g id="edge3" class="edge">
<title>2&#45;&gt;2</title>
<path fill="none" stroke="black" d="M245.53,-35.04C243.57,-44.86 246.76,-54 255.09,-54 260.3,-54 263.5,-50.43 264.69,-45.35"/>
<polygon fill="black" stroke="black" points="268.19,-45.03 264.66,-35.04 261.19,-45.05 268.19,-45.03"/>
<text text-anchor="middle" x="255.09" y="-57.8" font-family="Times New Roman,serif" font-size="14.00">ab</text>
</g>
</g>
</svg>
