<?xml version="1.0" encoding="UTF-8" standalone="no"?>
<!DOCTYPE svg PUBLIC "-//W3C//DTD SVG 1.1//EN"
 "http://www.w3.org/Graphics/SVG/1.1/DTD/svg11.dtd">
<!-- Generated by graphviz version 2.50.0 (20211204.2007)
 -->
<!-- Title: graf prawej strony Pages: 1 -->
<svg width="166pt" height="46pt"
 viewBox="0.00 0.00 166.00 46.35" xmlns="http://www.w3.org/2000/svg" xmlns:xlink="http://www.w3.org/1999/xlink">
<g id="graph0" class="graph" transform="scale(1 1) rotate(0) translate(4 42.35)">
<title>graf prawej strony</title>
<polygon fill="white" stroke="transparent" points="-4,4 -4,-42.35 162,-42.35 162,4 -4,4"/>
<!-- 1 -->
<g id="node1" class="node">
<title>1</title>
<ellipse fill="none" stroke="black" cx="27" cy="-20.35" rx="27" ry="18"/>
<text text-anchor="middle" x="27" y="-16.65" font-family="Times New Roman,serif" font-size="14.00">x</text>
</g>
<!-- 2 -->
<g id="node2" class="node">
<title>2</title>
<ellipse fill="none" stroke="black" cx="131" cy="-20.35" rx="27" ry="18"/>
<text text-anchor="middle" x="131" y="-16.65" font-family="Times New Roman,serif" font-size="14.00">y</text>
</g>
<!-- 1&#45;&gt;2 -->
<g id="edge1" class="edge">
<title>1&#45;&gt;2</title>
<path fill="none" stroke="black" d="M54,-20.35C66.02,-20.35 80.49,-20.35 93.57,-20.35"/>
<polygon fill="black" stroke="black" points="93.69,-23.85 103.69,-20.35 93.69,-16.85 93.69,-23.85"/>
<text text-anchor="middle" x="79" y="-24.15" font-family="Times New Roman,serif" font-size="14.00">ab</text>
</g>
<!-- 2&#45;&gt;1 -->
<g id="edge2" class="edge">
<title>2&#45;&gt;1</title>
<path fill="none" stroke="black" d="M110.44,-8.54C99.33,-3.21 85.07,1.35 72,-1.35 67.48,-2.29 62.85,-3.71 58.37,-5.36"/>
<polygon fill="black" stroke="black" points="56.83,-2.21 48.91,-9.26 59.49,-8.69 56.83,-2.21"/>
<text text-anchor="middle" x="79" y="-5.15" font-family="Times New Roman,serif" font-size="14.00">xy</text>
</g>
</g>
</svg>
